<svg width="55" height="63" viewBox="0 0 55 63" fill="none" xmlns="http://www.w3.org/2000/svg">
<path d="M34.6 30.025L34.8 30.225C35.1 30.525 35.5 30.625 35.9 30.625C36.3 30.625 36.7 30.425 37 30.225L41.3 25.925C42.3 26.625 43.6 26.925 44.7 26.925C46.4 26.925 48 26.325 49.3 25.025C51.5 22.825 51.8 19.525 50.2 16.925L54.5 12.625C54.8 12.325 54.9 11.925 54.9 11.525C54.9 11.125 54.7 10.725 54.5 10.425H54.2C51.6 7.825 48.1 6.325 44.4 6.325C42.7 6.325 41.1 6.625 39.6 7.225L34.1 1.725C31.8 -0.575 28.2 -0.575 25.9 1.725C24.8 2.825 24.2 4.225 24.2 5.825C24.2 7.425 24.8 8.825 25.9 9.925L27.9 11.925L9.9 29.925C8.9 29.325 7.8 28.925 6.5 28.925C2.9 28.925 0 31.825 0 35.425C0 39.025 2.9 41.925 6.5 41.925C6.7 41.925 6.8 41.925 7 41.925L19.9 54.825H15.6C12.1 54.825 9.2 57.725 9.2 61.225C9.2 62.025 9.9 62.725 10.7 62.725H40.7C41.5 62.725 42.2 62.025 42.2 61.225C42.2 61.125 42.2 61.025 42.2 60.925C42.1 57.525 39.2 54.825 35.8 54.825H32L13 35.825C13 35.725 13 35.525 13 35.425C13 34.125 12.6 32.925 12 31.925L30 13.925L31.3 15.225C30.7 16.725 30.4 18.425 30.4 20.025C30.5 23.925 32 27.425 34.6 30.025ZM6.5 39.125C4.5 39.125 3 37.525 3 35.625C3 33.725 4.6 32.125 6.5 32.125C8.5 32.125 10 33.725 10 35.625C10 37.525 8.4 39.125 6.5 39.125ZM35.8 57.925C37.1 57.925 38.3 58.725 38.9 59.825H12.5C13.1 58.725 14.2 57.925 15.6 57.925H35.8ZM27.7 54.925H24L10.1 41.025C10.8 40.525 11.4 39.925 11.9 39.225L27.7 54.925ZM47.2 22.925C46.2 23.925 44.7 24.225 43.5 23.725L48 19.225C48.4 20.525 48.2 21.925 47.2 22.925ZM44.4 9.325C46.9 9.325 49.3 10.125 51.2 11.725L35.9 27.025C34.3 25.125 33.5 22.725 33.5 20.225C33.5 17.325 34.6 14.625 36.7 12.525C38.8 10.425 41.5 9.325 44.4 9.325ZM28 7.725C27.5 7.225 27.2 6.525 27.2 5.725C27.2 5.025 27.5 4.325 28 3.725C29.1 2.625 30.8 2.625 31.9 3.725L36.7 8.525C35.9 9.025 35.2 9.625 34.5 10.325C33.8 11.025 33.2 11.725 32.7 12.525L28 7.725Z" fill="#1976D2"/>
</svg>
