<svg xmlns="http://www.w3.org/2000/svg" width="256" height="256"><path fill-opacity=".016" d="M0 128.004v128.004l128.25-.254 128.25-.254.254-127.75L257.008 0H0v128.004m.485.496c0 70.4.119 99.053.265 63.672.146-35.38.146-92.98 0-128C.604 29.153.485 58.1.485 128.5" fill="#1976D2" fill-rule="evenodd"/><path fill-opacity=".263" d="M130.137 1.369C121.101 4.639 114.8 13.9 114.8 23.91c0 7.414 2.002 11.682 9.052 19.297l5.495 5.935-36.309 36.32-36.309 36.319-4.114-1.869c-12.36-5.612-28.093.633-34.228 13.588-4.512 9.529-2.841 20.555 4.324 28.523 5.202 5.786 11.355 8.977 17.31 8.977h4.391l25.794 25.724c14.187 14.149 25.792 25.961 25.789 26.25-.003.289-4.84.551-10.75.581-9.005.046-11.601.432-16.033 2.389-6.691 2.954-12.723 9.669-14.717 16.384-1.996 6.721-1.885 9.282.505 11.672 1.959 1.959 3.323 2 65.75 1.985 35.063-.009 64.245-.346 64.85-.75 5.615-3.749 2.819-16.688-5.28-24.431-5.19-4.963-11.76-7.095-23.32-7.567l-10.5-.43-38.75-38.649C73.521 150.019 69 145.151 69 142.433c0-1.692-.735-5.233-1.632-7.867l-1.633-4.791 36.369-36.379 36.368-36.378 2.376 2.376c2.375 2.375 2.376 2.379.764 8.805-4.424 17.641.759 38.1 13.142 51.872 6.796 7.559 8.555 7.169 20.141-4.466l9.356-9.395 4.125 1.873c5.938 2.697 14.811 2.509 21.162-.449 6.291-2.929 12.792-10.17 14.451-16.096 1.536-5.484.964-14.938-1.16-19.185l-1.573-3.147 9.372-9.333c7.969-7.936 9.372-9.817 9.372-12.564 0-1.777-.562-3.695-1.25-4.262-10.832-8.946-17.164-12.609-26.682-15.435-7.067-2.098-21.997-2.119-28.993-.042l-5.288 1.571-13.643-13.37C153.561 5.4 149.577 2.132 146.384 1.201c-5.128-1.496-11.84-1.427-16.247.168M135 12.706c-2.761 1.01-5.932 4.557-7.02 7.855-1.61 4.879.416 8.47 11.217 19.884l9.412 9.946 8.079-8.079 8.079-8.079-10.133-10.007C142.377 12.122 140.158 10.821 135 12.706m55 26.424c-3.025.481-8.721 2.453-12.658 4.382-22.82 11.179-30.929 39.747-17.693 62.332l2.584 4.411 30.884-30.872C210.103 62.404 224 48.191 224 47.798c0-1.155-8.663-5.894-13.26-7.253-6.237-1.844-14.497-2.407-20.74-1.415m12.588 48.782c-8.037 8.074-8.646 8.947-6.479 9.281 4.59.708 9.337-1.029 12.641-4.625 2.764-3.01 3.25-4.288 3.25-8.553 0-2.758-.122-5.015-.271-5.015-.149 0-4.262 4.01-9.141 8.912M34.206 134.48c-6.361 5.353-6.973 15.215-1.296 20.892 2.859 2.859 3.685 3.128 9.59 3.128 5.901 0 6.732-.271 9.58-3.119 5.802-5.802 5.58-14.535-.512-20.131-3.086-2.834-4.234-3.25-8.977-3.25-4.329 0-6.038.505-8.385 2.48m27.01 29.797l-3.176 3.277 28.237 28.223L114.513 224H128.488L97 192.5C79.682 175.175 65.26 161 64.952 161c-.308 0-1.989 1.475-3.736 3.277m11.559 74.282c-1.499.813-3.202 2.37-3.785 3.46C67.939 243.982 68.407 244 121 244c51.527 0 53.041-.054 52.07-1.87-.551-1.028-2.547-2.603-4.437-3.5-3.021-1.433-8.842-1.625-48.284-1.59-37.629.034-45.288.278-47.574 1.519" fill="#1976D2" fill-rule="evenodd"/><path fill-opacity=".248" d="M130.353 1.628C121.94 4.61 115.06 14.205 115.028 23c-.029 7.842 1.687 11.661 8.475 18.856l6.384 6.767-36.799 36.789-36.799 36.789-3.198-1.654c-11.124-5.752-26.807-.527-33.291 11.092-9.219 16.52.947 37.019 19.348 39.01l5.352.58 26.263 26.135L97.027 223.5l-12.264.511c-13.703.57-17.56 1.853-23.532 7.825-4.511 4.511-7.182 10.534-7.209 16.259-.04 8.465-4.801 7.905 67.152 7.905s66.847.617 66.804-8.079c-.041-8.337-6.12-17.295-14.575-21.479-3.013-1.491-6.524-2.004-15.403-2.25l-11.5-.318-38.75-38.682C72.662 150.166 69 146.203 69 143.266c0-1.785-.838-5.451-1.863-8.147l-1.863-4.903 36.627-36.617 36.627-36.617 2.608 2.609c2.575 2.574 2.589 2.668 1.093 7.258-.937 2.873-1.523 8.474-1.533 14.651-.023 12.935 3.1 23.047 10.266 33.252 9.393 13.376 11.087 13.423 24.07.667l9.753-9.582 3.161 1.635c8.95 4.628 21.316 2.361 28.993-5.316 7.736-7.736 10.006-18.016 6.193-28.05l-1.867-4.915 9.367-9.49c10.69-10.829 11.345-12.723 6.118-17.683-13.681-12.982-34.385-18.808-51.798-14.575l-7.085 1.722-13.227-12.918C154.021 5.875 150.451 3.001 146.529 1.665c-5.87-2-10.607-2.011-16.176-.037m2.41 11.937c-4.911 2.665-7.164 9.807-4.654 14.751.611 1.201 5.594 6.725 11.075 12.276l9.965 10.092 7.925-8.065c4.36-4.436 7.926-8.311 7.926-8.612 0-.852-18.202-18.528-20.973-20.366-3.04-2.018-7.628-2.049-11.264-.076m53.342 26.018c-12.646 3.4-22.77 11.913-28.887 24.29-3.621 7.328-3.717 7.811-3.69 18.575.031 11.91 1.94 18.967 6.715 24.819l2.257 2.766 31.234-31.217c21.639-21.627 30.855-31.474 30-32.052-12.145-8.209-24.816-10.627-37.629-7.181m16.58 48.231c-4.811 4.834-8.434 9.104-8.05 9.488 1.232 1.232 6.459.747 9.984-.925 5.861-2.782 10.111-11.464 7.711-15.752-.735-1.313-2.469-.021-9.645 7.189M35.853 133.015c-4.64 2.452-8.347 9.547-7.455 14.268 1.058 5.6 4.075 9.35 9.05 11.25 3.97 1.516 5.201 1.589 8.774.519 10.03-3.005 13.904-14.536 7.584-22.572-4.241-5.391-11.613-6.814-17.953-3.465m25.218 31.186l-3.428 3.938 27.979 27.978 27.978 27.979 7.212-.298 7.212-.298-31.762-31.618L64.5 160.264l-3.429 3.937m14.391 72.863c-1.67.486-4.342 2.245-5.937 3.91L66.626 244h53.687c29.528 0 53.687-.38 53.687-.845 0-1.395-3.34-3.981-7.254-5.617-3.129-1.307-10.033-1.524-45.964-1.448-23.255.05-43.649.488-45.32.974" fill="#1976D2" fill-rule="evenodd"/><path fill-opacity=".238" d="M131.196 1.897C121.153 5.366 115.576 13.255 115.571 24c-.004 7.893 1.602 11.233 9.268 19.27l5.559 5.828L93.78 85.716l-36.617 36.618-4.643-1.773c-3.385-1.293-6.641-1.673-12.018-1.401-6.245.315-8.033.834-11.657 3.382-12.956 9.105-16.082 24.208-7.647 36.944 3.749 5.66 11.243 10.175 18.364 11.065l5.146.643 26.389 26.403L97.486 224H87.424c-12.251 0-18.561 1.713-24.252 6.585-5.105 4.369-8.084 9.875-8.852 16.359-.477 4.028-.225 5.151 1.555 6.931C57.997 255.997 58.102 256 121 256s63.003-.003 65.125-2.125c4.259-4.259.637-16.244-6.993-23.137-5.272-4.762-12.182-6.738-23.568-6.738h-9.074l-38.745-38.755C79.444 156.937 69 145.877 69 144.214c0-1.253-.931-5.042-2.07-8.421l-2.069-6.143 36.314-36.325C121.148 73.346 137.976 57 138.571 57c.594 0 2.071 1.055 3.283 2.344 2.145 2.284 2.163 2.495.674 8.21-4.468 17.155.546 38.526 12.038 51.308 7.527 8.372 8.649 8.137 21.486-4.504l8.551-8.422 3.949 1.655c5.583 2.341 14.905 2.22 20.448-.264 5.518-2.474 12.281-9.647 14.056-14.911 1.867-5.533 1.681-13.196-.454-18.787l-1.826-4.782 9.726-9.9c8.811-8.968 9.661-10.161 9.031-12.671-.383-1.525-.771-2.789-.864-2.809-.093-.02-2.194-1.644-4.669-3.607-6.404-5.082-14.542-9.426-21.5-11.478-7.714-2.274-23.017-2.298-29.984-.047l-4.983 1.61-13.517-13.371C151.989 4.676 149.901 3.026 145.068 1.601c-6.718-1.98-7.318-1.968-13.872.296M130.4 15.4c-2.896 2.896-3.4 4.092-3.4 8.07 0 4.552.256 4.938 10.157 15.35 5.587 5.874 10.52 11.09 10.962 11.592.452.512 3.78-2.176 7.593-6.133 3.733-3.875 7.688-7.534 8.788-8.133 1.837-.999 1.054-2.03-9.584-12.617C143.389 12.057 143.308 12 138.566 12c-4.087 0-5.251.485-8.166 3.4m53.362 24.542c-20.694 6.615-34.199 28.116-30.839 49.1 1.107 6.913 7.398 20.958 9.388 20.958C163.5 110 225 49.055 225 47.877c0-1.308-8.143-5.904-13.892-7.841-7.726-2.602-19.374-2.643-27.346-.094m18.967 47.828c-4.801 4.823-8.729 9.098-8.729 9.5 0 .401 1.912.728 4.25.726 8.152-.007 14.739-6.594 14.746-14.746.002-2.338-.343-4.25-.767-4.25s-4.699 3.946-9.5 8.77M35.241 132.995c-12.532 7.64-7.327 26.998 7.259 26.998 7.77 0 14.493-6.723 14.493-14.493 0-10.957-12.503-18.145-21.752-12.505m25.48 30.779l-3.686 3.774 28.739 28.726L114.513 225h7.243c3.984 0 7.244-.389 7.244-.864C129 223.39 65.432 160 64.684 160c-.153 0-1.936 1.698-3.963 3.774M73.5 237.653c-2.933 1.538-6.433 5.103-6.478 6.597-.012.412 24.278.75 53.978.75 29.7 0 54-.366 54-.813 0-1.098-4.978-5.674-7.684-7.065-1.522-.782-15.631-1.11-46.5-1.082-38.318.035-44.722.253-47.316 1.613" fill="#1976D2" fill-rule="evenodd"/></svg>